<?xml version="1.0" standalone="no"?>
<!DOCTYPE svg PUBLIC "-//W3C//DTD SVG 1.1//EN" "http://www.w3.org/Graphics/SVG/1.1/DTD/svg11.dtd">
<svg width="800" height="600" version="1.1" xmlns="http://www.w3.org/2000/svg">
<rect width="800" height="600" x="0" y="0" style="fill:rgb(238,238,238);stroke:none"/>
<rect width="800" height="600" x="0" y="0" style="fill:rgb(255,255,255);stroke:none"/>
<text x="2" y="566" fill="rgb(0,0,0)" font-family="Arial" font-size="12">0</text>
<text x="2" y="511" fill="rgb(0,0,0)" font-family="Arial" font-size="12">1000</text>
<text x="2" y="455" fill="rgb(0,0,0)" font-family="Arial" font-size="12">2000</text>
<text x="2" y="400" fill="rgb(0,0,0)" font-family="Arial" font-size="12">3000</text>
<text x="2" y="344" fill="rgb(0,0,0)" font-family="Arial" font-size="12">4000</text>
<text x="2" y="289" fill="rgb(0,0,0)" font-family="Arial" font-size="12">5000</text>
<text x="2" y="233" fill="rgb(0,0,0)" font-family="Arial" font-size="12">6000</text>
<text x="2" y="178" fill="rgb(0,0,0)" font-family="Arial" font-size="12">7000</text>
<text x="2" y="122" fill="rgb(0,0,0)" font-family="Arial" font-size="12">8000</text>
<text x="2" y="67" fill="rgb(0,0,0)" font-family="Arial" font-size="12">9000</text>
<text x="280" y="30" fill="rgb(0,0,0)" font-family="Arial" font-size="12">Quality score distribution over all sequences</text>
<line x1="37" y1="560" x2="790" y2="560" stroke="rgb(0,0,0)" stroke-width="1"/>
<line x1="37" y1="560" x2="37" y2="40" stroke="rgb(0,0,0)" stroke-width="1"/>
<text x="286" y="595" fill="rgb(0,0,0)" font-family="Arial" font-size="12">Mean Sequence Quality (Phred Score)</text>
<text x="44" y="575" fill="rgb(0,0,0)" font-family="Arial" font-size="12">8</text>
<rect width="23" height="520" x="60" y="40" style="fill:rgb(230,230,230);stroke:none"/>
<text x="67" y="575" fill="rgb(0,0,0)" font-family="Arial" font-size="12">9</text>
<text x="86" y="575" fill="rgb(0,0,0)" font-family="Arial" font-size="12">10</text>
<rect width="23" height="520" x="106" y="40" style="fill:rgb(230,230,230);stroke:none"/>
<text x="109" y="575" fill="rgb(0,0,0)" font-family="Arial" font-size="12">11</text>
<text x="132" y="575" fill="rgb(0,0,0)" font-family="Arial" font-size="12">12</text>
<rect width="23" height="520" x="152" y="40" style="fill:rgb(230,230,230);stroke:none"/>
<text x="155" y="575" fill="rgb(0,0,0)" font-family="Arial" font-size="12">13</text>
<text x="178" y="575" fill="rgb(0,0,0)" font-family="Arial" font-size="12">14</text>
<rect width="23" height="520" x="198" y="40" style="fill:rgb(230,230,230);stroke:none"/>
<text x="201" y="575" fill="rgb(0,0,0)" font-family="Arial" font-size="12">15</text>
<text x="224" y="575" fill="rgb(0,0,0)" font-family="Arial" font-size="12">16</text>
<rect width="23" height="520" x="244" y="40" style="fill:rgb(230,230,230);stroke:none"/>
<text x="247" y="575" fill="rgb(0,0,0)" font-family="Arial" font-size="12">17</text>
<text x="270" y="575" fill="rgb(0,0,0)" font-family="Arial" font-size="12">18</text>
<rect width="23" height="520" x="290" y="40" style="fill:rgb(230,230,230);stroke:none"/>
<text x="293" y="575" fill="rgb(0,0,0)" font-family="Arial" font-size="12">19</text>
<text x="316" y="575" fill="rgb(0,0,0)" font-family="Arial" font-size="12">20</text>
<rect width="23" height="520" x="336" y="40" style="fill:rgb(230,230,230);stroke:none"/>
<text x="339" y="575" fill="rgb(0,0,0)" font-family="Arial" font-size="12">21</text>
<text x="362" y="575" fill="rgb(0,0,0)" font-family="Arial" font-size="12">22</text>
<rect width="23" height="520" x="382" y="40" style="fill:rgb(230,230,230);stroke:none"/>
<text x="385" y="575" fill="rgb(0,0,0)" font-family="Arial" font-size="12">23</text>
<text x="408" y="575" fill="rgb(0,0,0)" font-family="Arial" font-size="12">24</text>
<rect width="23" height="520" x="428" y="40" style="fill:rgb(230,230,230);stroke:none"/>
<text x="431" y="575" fill="rgb(0,0,0)" font-family="Arial" font-size="12">25</text>
<text x="454" y="575" fill="rgb(0,0,0)" font-family="Arial" font-size="12">26</text>
<rect width="23" height="520" x="474" y="40" style="fill:rgb(230,230,230);stroke:none"/>
<text x="477" y="575" fill="rgb(0,0,0)" font-family="Arial" font-size="12">27</text>
<text x="500" y="575" fill="rgb(0,0,0)" font-family="Arial" font-size="12">28</text>
<rect width="23" height="520" x="520" y="40" style="fill:rgb(230,230,230);stroke:none"/>
<text x="523" y="575" fill="rgb(0,0,0)" font-family="Arial" font-size="12">29</text>
<text x="546" y="575" fill="rgb(0,0,0)" font-family="Arial" font-size="12">30</text>
<rect width="23" height="520" x="566" y="40" style="fill:rgb(230,230,230);stroke:none"/>
<text x="569" y="575" fill="rgb(0,0,0)" font-family="Arial" font-size="12">31</text>
<text x="592" y="575" fill="rgb(0,0,0)" font-family="Arial" font-size="12">32</text>
<rect width="23" height="520" x="612" y="40" style="fill:rgb(230,230,230);stroke:none"/>
<text x="615" y="575" fill="rgb(0,0,0)" font-family="Arial" font-size="12">33</text>
<text x="638" y="575" fill="rgb(0,0,0)" font-family="Arial" font-size="12">34</text>
<rect width="23" height="520" x="658" y="40" style="fill:rgb(230,230,230);stroke:none"/>
<text x="661" y="575" fill="rgb(0,0,0)" font-family="Arial" font-size="12">35</text>
<text x="684" y="575" fill="rgb(0,0,0)" font-family="Arial" font-size="12">36</text>
<rect width="23" height="520" x="704" y="40" style="fill:rgb(230,230,230);stroke:none"/>
<text x="707" y="575" fill="rgb(0,0,0)" font-family="Arial" font-size="12">37</text>
<text x="730" y="575" fill="rgb(0,0,0)" font-family="Arial" font-size="12">38</text>
<rect width="23" height="520" x="750" y="40" style="fill:rgb(230,230,230);stroke:none"/>
<text x="753" y="575" fill="rgb(0,0,0)" font-family="Arial" font-size="12">39</text>
<line x1="37" y1="560" x2="790" y2="560" stroke="rgb(180,180,180)" stroke-width="1"/>
<line x1="37" y1="505" x2="790" y2="505" stroke="rgb(180,180,180)" stroke-width="1"/>
<line x1="37" y1="449" x2="790" y2="449" stroke="rgb(180,180,180)" stroke-width="1"/>
<line x1="37" y1="394" x2="790" y2="394" stroke="rgb(180,180,180)" stroke-width="1"/>
<line x1="37" y1="338" x2="790" y2="338" stroke="rgb(180,180,180)" stroke-width="1"/>
<line x1="37" y1="283" x2="790" y2="283" stroke="rgb(180,180,180)" stroke-width="1"/>
<line x1="37" y1="227" x2="790" y2="227" stroke="rgb(180,180,180)" stroke-width="1"/>
<line x1="37" y1="172" x2="790" y2="172" stroke="rgb(180,180,180)" stroke-width="1"/>
<line x1="37" y1="116" x2="790" y2="116" stroke="rgb(180,180,180)" stroke-width="1"/>
<line x1="37" y1="61" x2="790" y2="61" stroke="rgb(180,180,180)" stroke-width="1"/>
<line x1="48" y1="560" x2="71" y2="557" stroke="rgb(136,34,85)" stroke-width="1"/>
<line x1="71" y1="557" x2="94" y2="554" stroke="rgb(136,34,85)" stroke-width="1"/>
<line x1="94" y1="554" x2="117" y2="552" stroke="rgb(136,34,85)" stroke-width="1"/>
<line x1="117" y1="552" x2="140" y2="545" stroke="rgb(136,34,85)" stroke-width="1"/>
<line x1="140" y1="545" x2="163" y2="537" stroke="rgb(136,34,85)" stroke-width="1"/>
<line x1="163" y1="537" x2="186" y2="518" stroke="rgb(136,34,85)" stroke-width="1"/>
<line x1="186" y1="518" x2="209" y2="503" stroke="rgb(136,34,85)" stroke-width="1"/>
<line x1="209" y1="503" x2="232" y2="452" stroke="rgb(136,34,85)" stroke-width="1"/>
<line x1="232" y1="452" x2="255" y2="360" stroke="rgb(136,34,85)" stroke-width="1"/>
<line x1="255" y1="360" x2="278" y2="128" stroke="rgb(136,34,85)" stroke-width="1"/>
<line x1="278" y1="128" x2="301" y2="40" stroke="rgb(136,34,85)" stroke-width="1"/>
<line x1="301" y1="40" x2="324" y2="423" stroke="rgb(136,34,85)" stroke-width="1"/>
<line x1="324" y1="423" x2="347" y2="509" stroke="rgb(136,34,85)" stroke-width="1"/>
<line x1="347" y1="509" x2="370" y2="537" stroke="rgb(136,34,85)" stroke-width="1"/>
<line x1="370" y1="537" x2="393" y2="552" stroke="rgb(136,34,85)" stroke-width="1"/>
<line x1="393" y1="552" x2="416" y2="558" stroke="rgb(136,34,85)" stroke-width="1"/>
<line x1="416" y1="558" x2="439" y2="560" stroke="rgb(136,34,85)" stroke-width="1"/>
<line x1="439" y1="560" x2="462" y2="560" stroke="rgb(136,34,85)" stroke-width="1"/>
<line x1="462" y1="560" x2="485" y2="560" stroke="rgb(136,34,85)" stroke-width="1"/>
<line x1="485" y1="560" x2="508" y2="560" stroke="rgb(136,34,85)" stroke-width="1"/>
<line x1="508" y1="560" x2="531" y2="560" stroke="rgb(136,34,85)" stroke-width="1"/>
<line x1="531" y1="560" x2="554" y2="560" stroke="rgb(136,34,85)" stroke-width="1"/>
<line x1="554" y1="560" x2="577" y2="560" stroke="rgb(136,34,85)" stroke-width="1"/>
<line x1="577" y1="560" x2="600" y2="560" stroke="rgb(136,34,85)" stroke-width="1"/>
<line x1="600" y1="560" x2="623" y2="560" stroke="rgb(136,34,85)" stroke-width="1"/>
<line x1="623" y1="560" x2="646" y2="560" stroke="rgb(136,34,85)" stroke-width="1"/>
<line x1="646" y1="560" x2="669" y2="560" stroke="rgb(136,34,85)" stroke-width="1"/>
<line x1="669" y1="560" x2="692" y2="560" stroke="rgb(136,34,85)" stroke-width="1"/>
<line x1="692" y1="560" x2="715" y2="560" stroke="rgb(136,34,85)" stroke-width="1"/>
<line x1="715" y1="560" x2="738" y2="560" stroke="rgb(136,34,85)" stroke-width="1"/>
<line x1="738" y1="560" x2="761" y2="560" stroke="rgb(136,34,85)" stroke-width="1"/>
<rect width="177" height="23" x="613" y="40" style="fill:rgb(255,255,255);stroke:none"/>
<rect width="177" height="23" x="613" y="40" rx="0" ry="0" style="fill:none;stroke-width:1;stroke:rgb(192,192,192)"/>
<text x="616" y="55" fill="rgb(136,34,85)" font-family="Arial" font-size="12" font-weight="bold">Average Quality per read</text>
</svg>
