<?xml version="1.0" standalone="no"?>
<!DOCTYPE svg PUBLIC "-//W3C//DTD SVG 1.1//EN" "http://www.w3.org/Graphics/SVG/1.1/DTD/svg11.dtd">
<svg width="800" height="600" version="1.1" xmlns="http://www.w3.org/2000/svg">
<rect width="800" height="600" x="0" y="0" style="fill:rgb(238,238,238);stroke:none"/>
<rect width="800" height="600" x="0" y="0" style="fill:rgb(255,255,255);stroke:none"/>
<text x="2" y="566" fill="rgb(0,0,0)" font-family="Arial" font-size="12">0</text>
<text x="2" y="478" fill="rgb(0,0,0)" font-family="Arial" font-size="12">2000</text>
<text x="2" y="389" fill="rgb(0,0,0)" font-family="Arial" font-size="12">4000</text>
<text x="2" y="300" fill="rgb(0,0,0)" font-family="Arial" font-size="12">6000</text>
<text x="2" y="211" fill="rgb(0,0,0)" font-family="Arial" font-size="12">8000</text>
<text x="2" y="122" fill="rgb(0,0,0)" font-family="Arial" font-size="12">10000</text>
<text x="262" y="30" fill="rgb(0,0,0)" font-family="Arial" font-size="12">Distribution of sequence lengths over all sequences</text>
<line x1="45" y1="560" x2="790" y2="560" stroke="rgb(0,0,0)" stroke-width="1"/>
<line x1="45" y1="560" x2="45" y2="40" stroke="rgb(0,0,0)" stroke-width="1"/>
<text x="332" y="595" fill="rgb(0,0,0)" font-family="Arial" font-size="12">Sequence Length (bp)</text>
<text x="31" y="575" fill="rgb(0,0,0)" font-family="Arial" font-size="12">0-1999</text>
<rect width="16" height="520" x="61" y="40" style="fill:rgb(230,230,230);stroke:none"/>
<rect width="16" height="520" x="93" y="40" style="fill:rgb(230,230,230);stroke:none"/>
<text x="83" y="575" fill="rgb(0,0,0)" font-family="Arial" font-size="12">8000-9999</text>
<rect width="16" height="520" x="125" y="40" style="fill:rgb(230,230,230);stroke:none"/>
<rect width="16" height="520" x="157" y="40" style="fill:rgb(230,230,230);stroke:none"/>
<rect width="16" height="520" x="189" y="40" style="fill:rgb(230,230,230);stroke:none"/>
<text x="171" y="575" fill="rgb(0,0,0)" font-family="Arial" font-size="12">20000-21999</text>
<rect width="16" height="520" x="221" y="40" style="fill:rgb(230,230,230);stroke:none"/>
<rect width="16" height="520" x="253" y="40" style="fill:rgb(230,230,230);stroke:none"/>
<rect width="16" height="520" x="285" y="40" style="fill:rgb(230,230,230);stroke:none"/>
<text x="267" y="575" fill="rgb(0,0,0)" font-family="Arial" font-size="12">32000-33999</text>
<rect width="16" height="520" x="317" y="40" style="fill:rgb(230,230,230);stroke:none"/>
<rect width="16" height="520" x="349" y="40" style="fill:rgb(230,230,230);stroke:none"/>
<rect width="16" height="520" x="381" y="40" style="fill:rgb(230,230,230);stroke:none"/>
<text x="363" y="575" fill="rgb(0,0,0)" font-family="Arial" font-size="12">44000-45999</text>
<rect width="16" height="520" x="413" y="40" style="fill:rgb(230,230,230);stroke:none"/>
<rect width="16" height="520" x="445" y="40" style="fill:rgb(230,230,230);stroke:none"/>
<rect width="16" height="520" x="477" y="40" style="fill:rgb(230,230,230);stroke:none"/>
<text x="459" y="575" fill="rgb(0,0,0)" font-family="Arial" font-size="12">56000-57999</text>
<rect width="16" height="520" x="509" y="40" style="fill:rgb(230,230,230);stroke:none"/>
<rect width="16" height="520" x="541" y="40" style="fill:rgb(230,230,230);stroke:none"/>
<rect width="16" height="520" x="573" y="40" style="fill:rgb(230,230,230);stroke:none"/>
<text x="555" y="575" fill="rgb(0,0,0)" font-family="Arial" font-size="12">68000-69999</text>
<rect width="16" height="520" x="605" y="40" style="fill:rgb(230,230,230);stroke:none"/>
<rect width="16" height="520" x="637" y="40" style="fill:rgb(230,230,230);stroke:none"/>
<rect width="16" height="520" x="669" y="40" style="fill:rgb(230,230,230);stroke:none"/>
<text x="651" y="575" fill="rgb(0,0,0)" font-family="Arial" font-size="12">80000-81999</text>
<rect width="16" height="520" x="701" y="40" style="fill:rgb(230,230,230);stroke:none"/>
<rect width="16" height="520" x="733" y="40" style="fill:rgb(230,230,230);stroke:none"/>
<rect width="16" height="520" x="765" y="40" style="fill:rgb(230,230,230);stroke:none"/>
<line x1="45" y1="560" x2="790" y2="560" stroke="rgb(180,180,180)" stroke-width="1"/>
<line x1="45" y1="472" x2="790" y2="472" stroke="rgb(180,180,180)" stroke-width="1"/>
<line x1="45" y1="383" x2="790" y2="383" stroke="rgb(180,180,180)" stroke-width="1"/>
<line x1="45" y1="294" x2="790" y2="294" stroke="rgb(180,180,180)" stroke-width="1"/>
<line x1="45" y1="205" x2="790" y2="205" stroke="rgb(180,180,180)" stroke-width="1"/>
<line x1="45" y1="116" x2="790" y2="116" stroke="rgb(180,180,180)" stroke-width="1"/>
<line x1="53" y1="40" x2="69" y2="328" stroke="rgb(136,34,85)" stroke-width="1"/>
<line x1="69" y1="328" x2="85" y2="481" stroke="rgb(136,34,85)" stroke-width="1"/>
<line x1="85" y1="481" x2="101" y2="505" stroke="rgb(136,34,85)" stroke-width="1"/>
<line x1="101" y1="505" x2="117" y2="514" stroke="rgb(136,34,85)" stroke-width="1"/>
<line x1="117" y1="514" x2="133" y2="522" stroke="rgb(136,34,85)" stroke-width="1"/>
<line x1="133" y1="522" x2="149" y2="523" stroke="rgb(136,34,85)" stroke-width="1"/>
<line x1="149" y1="523" x2="165" y2="527" stroke="rgb(136,34,85)" stroke-width="1"/>
<line x1="165" y1="527" x2="181" y2="529" stroke="rgb(136,34,85)" stroke-width="1"/>
<line x1="181" y1="529" x2="197" y2="535" stroke="rgb(136,34,85)" stroke-width="1"/>
<line x1="197" y1="535" x2="213" y2="539" stroke="rgb(136,34,85)" stroke-width="1"/>
<line x1="213" y1="539" x2="229" y2="540" stroke="rgb(136,34,85)" stroke-width="1"/>
<line x1="229" y1="540" x2="245" y2="543" stroke="rgb(136,34,85)" stroke-width="1"/>
<line x1="245" y1="543" x2="261" y2="543" stroke="rgb(136,34,85)" stroke-width="1"/>
<line x1="261" y1="543" x2="277" y2="549" stroke="rgb(136,34,85)" stroke-width="1"/>
<line x1="277" y1="549" x2="293" y2="549" stroke="rgb(136,34,85)" stroke-width="1"/>
<line x1="293" y1="549" x2="309" y2="550" stroke="rgb(136,34,85)" stroke-width="1"/>
<line x1="309" y1="550" x2="325" y2="552" stroke="rgb(136,34,85)" stroke-width="1"/>
<line x1="325" y1="552" x2="341" y2="552" stroke="rgb(136,34,85)" stroke-width="1"/>
<line x1="341" y1="552" x2="357" y2="553" stroke="rgb(136,34,85)" stroke-width="1"/>
<line x1="357" y1="553" x2="373" y2="553" stroke="rgb(136,34,85)" stroke-width="1"/>
<line x1="373" y1="553" x2="389" y2="554" stroke="rgb(136,34,85)" stroke-width="1"/>
<line x1="389" y1="554" x2="405" y2="555" stroke="rgb(136,34,85)" stroke-width="1"/>
<line x1="405" y1="555" x2="421" y2="537" stroke="rgb(136,34,85)" stroke-width="1"/>
<line x1="421" y1="537" x2="437" y2="527" stroke="rgb(136,34,85)" stroke-width="1"/>
<line x1="437" y1="527" x2="453" y2="560" stroke="rgb(136,34,85)" stroke-width="1"/>
<line x1="453" y1="560" x2="469" y2="560" stroke="rgb(136,34,85)" stroke-width="1"/>
<line x1="469" y1="560" x2="485" y2="560" stroke="rgb(136,34,85)" stroke-width="1"/>
<line x1="485" y1="560" x2="501" y2="560" stroke="rgb(136,34,85)" stroke-width="1"/>
<line x1="501" y1="560" x2="517" y2="560" stroke="rgb(136,34,85)" stroke-width="1"/>
<line x1="517" y1="560" x2="533" y2="560" stroke="rgb(136,34,85)" stroke-width="1"/>
<line x1="533" y1="560" x2="549" y2="560" stroke="rgb(136,34,85)" stroke-width="1"/>
<line x1="549" y1="560" x2="565" y2="560" stroke="rgb(136,34,85)" stroke-width="1"/>
<line x1="565" y1="560" x2="581" y2="560" stroke="rgb(136,34,85)" stroke-width="1"/>
<line x1="581" y1="560" x2="597" y2="560" stroke="rgb(136,34,85)" stroke-width="1"/>
<line x1="597" y1="560" x2="613" y2="560" stroke="rgb(136,34,85)" stroke-width="1"/>
<line x1="613" y1="560" x2="629" y2="560" stroke="rgb(136,34,85)" stroke-width="1"/>
<line x1="629" y1="560" x2="645" y2="560" stroke="rgb(136,34,85)" stroke-width="1"/>
<line x1="645" y1="560" x2="661" y2="560" stroke="rgb(136,34,85)" stroke-width="1"/>
<line x1="661" y1="560" x2="677" y2="560" stroke="rgb(136,34,85)" stroke-width="1"/>
<line x1="677" y1="560" x2="693" y2="560" stroke="rgb(136,34,85)" stroke-width="1"/>
<line x1="693" y1="560" x2="709" y2="560" stroke="rgb(136,34,85)" stroke-width="1"/>
<line x1="709" y1="560" x2="725" y2="560" stroke="rgb(136,34,85)" stroke-width="1"/>
<line x1="725" y1="560" x2="741" y2="560" stroke="rgb(136,34,85)" stroke-width="1"/>
<line x1="741" y1="560" x2="757" y2="560" stroke="rgb(136,34,85)" stroke-width="1"/>
<line x1="757" y1="560" x2="773" y2="560" stroke="rgb(136,34,85)" stroke-width="1"/>
<rect width="126" height="23" x="664" y="40" style="fill:rgb(255,255,255);stroke:none"/>
<rect width="126" height="23" x="664" y="40" rx="0" ry="0" style="fill:none;stroke-width:1;stroke:rgb(192,192,192)"/>
<text x="667" y="55" fill="rgb(136,34,85)" font-family="Arial" font-size="12" font-weight="bold">Sequence Length</text>
</svg>
